/* XPM */
static char *_552973782133[] = {
/* columns rows colors chars-per-pixel */
"64 64 197 2 ",
"   c #004700",
".  c #005400",
"X  c #005C00",
"o  c #016401",
"O  c #026C01",
"+  c #0B6B0B",
"@  c #027402",
"#  c #017B01",
"$  c #0B7F0C",
"%  c #146D12",
"&  c #117C11",
"*  c #1B741A",
"=  c #236C23",
"-  c #277028",
";  c #2C742C",
":  c #287828",
">  c #347C34",
",  c #018301",
"<  c #018B01",
"1  c #019301",
"2  c #019B01",
"3  c #089609",
"4  c #0D980D",
"5  c #0F8410",
"6  c #188117",
"7  c #198119",
"8  c #1D9E1D",
"9  c #01A401",
"0  c #01AB02",
"q  c #01B301",
"w  c #01BC01",
"e  c #08BE0A",
"r  c #17AE18",
"t  c #1F8120",
"y  c #248524",
"u  c #218E21",
"i  c #388037",
"p  c #3A8439",
"a  c #388A39",
"s  c #349D34",
"d  c #3C913D",
"f  c #22AA21",
"g  c #2CA42C",
"h  c #26AB28",
"j  c #23B324",
"k  c #20BB20",
"l  c #2BB92C",
"z  c #3AA53B",
"x  c #39AE38",
"c  c #35A835",
"v  c #3FB63F",
"b  c #35B636",
"n  c #01C401",
"m  c #01CC01",
"M  c #0BC80C",
"N  c #01D401",
"B  c #01DC01",
"V  c #0BD40C",
"C  c #08DF08",
"Z  c #1CC61C",
"A  c #12DD11",
"S  c #1AD31C",
"D  c #01E401",
"F  c #01EB01",
"G  c #0DE50C",
"H  c #0FEA0F",
"J  c #02F301",
"K  c #02FC02",
"L  c #13ED13",
"P  c #1CE31D",
"I  c #13F313",
"U  c #28C727",
"Y  c #23DF24",
"T  c #36DE37",
"R  c #29E328",
"E  c #3FBA40",
"W  c #488648",
"Q  c #4D8C4C",
"!  c #478547",
"~  c #489D47",
"^  c #479D48",
"/  c #51904F",
"(  c #559554",
")  c #549955",
"_  c #599359",
"`  c #5A9D5B",
"'  c #42A342",
"]  c #47A448",
"[  c #45AB45",
"{  c #50A34F",
"}  c #51A051",
"|  c #5DA45D",
" . c #5CAB5C",
".. c #5EB25D",
"X. c #60B560",
"o. c #63BB64",
"O. c #6DB56D",
"+. c #76A676",
"@. c #76B276",
"#. c #72BB72",
"$. c #7BBD7B",
"%. c #67A867",
"&. c #42C144",
"*. c #42EC43",
"=. c #55EC56",
"-. c #6AC36A",
";. c #6ACC6D",
":. c #6CD16E",
">. c #70D56F",
",. c #77C378",
"<. c #7DCC7D",
"1. c #75C576",
"2. c #72DC72",
"3. c #74D076",
"4. c #64E164",
"5. c #6CE66C",
"6. c #6FE96F",
"7. c #74E573",
"8. c #7CEB7B",
"9. c #79E879",
"0. c #83AC83",
"q. c #81B681",
"w. c #85BA85",
"e. c #9FB69E",
"r. c #8AC38A",
"t. c #84C285",
"y. c #82D482",
"u. c #85DB87",
"i. c #88DF89",
"p. c #89D28A",
"a. c #98CD98",
"s. c #94C694",
"d. c #97D997",
"f. c #9ED09E",
"g. c #83EC83",
"h. c #8BE48A",
"j. c #8FEE8F",
"k. c #85E186",
"l. c #94EC93",
"z. c #94E493",
"x. c #9FDBA0",
"c. c #A2D6A2",
"v. c #A3DCA3",
"b. c #A9D6AA",
"n. c #AEDAAF",
"m. c #B3D3B4",
"M. c #B2DEB3",
"N. c #BEDCBD",
"B. c #A4C9A5",
"V. c #ADF4AC",
"C. c #A3F5A3",
"Z. c #B5ECB4",
"A. c #BBE7BB",
"S. c #BCEDBD",
"D. c #B7F6B8",
"F. c #BCF2BB",
"G. c #B7F8B8",
"H. c #BBF9BA",
"J. c #B4F2B3",
"K. c #A9EBA9",
"L. c #C5E5C6",
"P. c #C2ECC3",
"I. c #C7E7C8",
"U. c #C8E7C9",
"Y. c #CCECCD",
"T. c #C3FCC3",
"R. c #CBF2CB",
"E. c #C7FCC8",
"W. c #CCFDCC",
"Q. c #C7F7C6",
"!. c #D1FDCF",
"~. c #D1ECD2",
"^. c #DCEEDB",
"/. c #CFFED0",
"(. c #D5F2D5",
"). c #D8F3D7",
"_. c #D3FDD2",
"`. c #D8FDD7",
"'. c #DAF4DA",
"]. c #D7FDD8",
"[. c #DBFDDB",
"{. c #E0FDDF",
"}. c #DFF2E0",
"|. c #DFFEE0",
" X c #E3F4E4",
".X c #E3FDE2",
"XX c #E8FFE7",
"oX c #E7F7E8",
"OX c #E9F5E9",
"+X c #E5FFE8",
"@X c #EBFEEB",
"#X c #F0FDEF",
"$X c #EFFCF2",
"%X c #F4FDF4",
"&X c #F8FDF7",
"*X c #F7FEF8",
"=X c #FCFFFC",
/* pixels */
"T.T.H.T.T.T.T.T.E.E.E.E.E.E.E.W.W.W.W.W.W.W.W./.W.W././.W._./.W.W./.!./.W.W.W.W.W.W.W.W.W.W.W.E.E.W.E.W.E.E.E.E.T.T.T.T.T.T.H.T.",
"H.T.T.T.T.T.T.T.E.E.T.W.W.W.W.W.W.W.W.W.!.W.W._._./.W._.!.!._._._._.!._._._./._./.W.W.W./.W.W.W.W.W.E.E.E.E.E.E.T.T.T.T.T.T.T.H.",
"H.T.T.T.T.E.E.E.E.E.W.T.Q.W.W.W.W.W.W.W.!.!./.W.W.!._._._._._._._.!._.!.!.!._._.!.!.!.!.W.W.W.W.W.W.W.E.E.W.E.E.E.E.Q.T.T.T.T.H.",
"T.H.T.T.E.E.E.E.E.W.W.W.W.W.W.W.W.W._._._.!._.!._._._._._._._._._._._._._._._.!._.!.!.!._././.W.W.W.W.W.E.W.E.E.E.E.T.E.T.T.T.T.",
"T.T.T.T.E.E.E.E.E.W.W.W.W.W.W.!./././.W._.!._._._._.`._._.]._.].]._.]._._._._._._._._.!._.W././.W.W.W.W.W.W.W.W.E.E.T.W.T.T.T.T.",
"T.T.T.E.E.E.E.E.W.W.W.W.W.!.W.!._._._._._.`._._.`.`._.].].].].].].].].].].`._.`.`._._.)._._._._._.!.W.W.W.W.W.W.W.W.E.T.T.T.T.T.",
"H.T.E.E.E.E.E.E.W.W.W.W.W.!.!.!._._._._._.`.].].].].].].].].].].].[.].].[.].].].`._.`._._._._._.!.!.W.W.W.W.W.W.E.W.T.E.W.T.T.T.",
"E.E.E.E.E.E.E.W.W.W.W.W._.!.!.!._._._._.].].].].].].].].[.[.[.[.[.[.[.[.].].[.].[._.`.[._._._._._.!._._./.W.W.W.!.T.W.W.E.E.T.T.",
"E.E.E.E.W.E.W.W.W.W.W._.!._._._._._.].].].].].[.[.[.[.[.[.[.].].].].].[.[.[.[.].].].[.].].]._._._._._._._.W.!.W.W.W.W.Q.E.W.T.T.",
"W.E.E.E.E.W.W.W.!.W._.W._._._._.].].].].].[.[.[.[.[.[.{.[.[.XX@X@X@X.X[.[.[.[.{.[.[.].[.[.].].]._._._._.!._.W.W.W.W.E.W.W.T.E.W.",
"Q.E.E.W.W.W.W.W.W._.!._._._._.].].].].[.[.|.[.[.[..X[.[..X+XM.q.@.w.L.+X[.[..X[.[.[.[.[.].].].].`.)._._._.W.!.!.W.W.W.W.W.W.E.E.",
"E.E.W.W.W.W.W.W._.!._._.]._.].].].].[.[.[.[.[..X[.|.[.XX).) + O O @ & $.XX{.{.{.{.{.[.[.[.[.[.].`.`._._._._._.!.!.W.W.W.E.W.E.E.",
"E.E.W.W.W.W._._._._._._.].].].].[.[.[.[.[.{.{.{..X{.XX(.p o # # , , , @ O.XX{.[.{.{.[.[.{.[.[.[.`.].`.`._._.!.!.!.W.W.W.W.E.W.Q.",
"W.W.Q.W.W.W././._._._.].].].].].].[.[.{.{.{.{.{.[.XX(.p O # # , , , < < # #.@X[.{.{.{.{.{.[.|.[.].].].`.`._._.!.!.!.!.W.W.W.W.E.",
"T.W.!.W.W.W.!._._._._.].].].[.[.[.{.[.{.{.{.{.{.XX).> O # @ # , , , < < 1 , #.@X{.{.{.{.{.[.[.[.[.].].].`._._._._.!.W.W.W.W.W.E.",
"W.W.W.W.W._.!._._._.].].[.].[.[.[.{.{.{..X{..X@X~.> o # # # , , < < < 1 1 2 , 1.@X{..X{.{.{..X[.[.[.[.].[.]._._.!._.!.!.W.W.W.W.",
"W.W.W.W.!.!._._._._.].[.].[.[..X|.{.{.{..X X@X~.> o # # # # , , < < 1 1 1 2 2 < 1.@X.X.X.X.X.X[.{.[.[.].].].]._._._._.W.W.W.W.E.",
"W.W.W.W.!.!._._.`.].].[.[.[.[.[.[.{..X.X{.@X~.> o $ @ # # , , < < < 1 1 1 2 2 9 1 ,.@X.X.X.X|.|.{.[.[.[.].].].]._._._.W./.W.W.W.",
"W.W.!.!._._._._.].].].].[.|.[.{..X.X.X.X@X~.; o # @ # # , , , , < 1 1 1 2 2 9 9 0 1 <.@X.X.X.X|..X[.{.[.[.].].]._._._._._.W.W.W.",
"W.W.W.!._._._._.].].].[.[.[..X.X.X.X.X@X~.; o @ @ @ # , , , , #.' , 1 2 2 9 9 9 0 q 2 <.@X.X|..X{.{.{.[.[.].].]._._._._./._.W.W.",
"W.W.W.!._._._.].].[.[.[.[.{.{..X.X.X@XY.; o @ @ @ # # , , $ #.@X'.s < 3 2 9 9 0 0 q w 9 y.@XXX|..X{.[.[.[.[.[.[.`._._._._._.W.W.",
"W.W._.!._._._._.].].[.[.{.{.{..X X@XU.; o @ @ @ # # , , $ ,.%X%X*X).c 1 9 9 9 0 0 q w n 0 u.@X.X.X{..X|.|.[.[.].[._._._.!.W./.W.",
"W./._.!._._.].].[.[.[.[.{.{..X{.@XU.= o @ @ @ # # , , $ t.#X%X#X%X*X~.s 1 0 0 0 q w w n n q u.@X.X{.{.[.[.[.[.]._.]._._._./.W.W.",
"W._.!._._._.[.[.[.[.|.[.{.{..X@XU.= X @ @ @ # # # , $ r.*X&X%X%X%X%X*X(.g 9 q q q w w n m m e u.@X{.{.{.[.|.[.[.].]._._._._._.W.",
"W./._._._.].].].[.[.[.[.{.[.@XL.= o + @ @ @ # , # & s.*X*X%X*X&X*X*X%X=XY.g 0 w w w n n m N N M i.XX{..X{.[.[.].].].`._._._.!.!.",
"_./.W._._.].].[.[.[.[..X[.@XN.= o O O @ # # # # 6 a.*X%X&X*X*X&X=X%X&X*X=XY.h q n n n m N N B B M k.XX[.[.[..X[.[._.`._._.!._.W.",
"W.!._._._.].[.].[.{.{.[.XXD.u X @ @ @ @ @ # # 7 f.*X*X*X&X&X*XOXm.%X&X&X&X=XP.j w n m m N N B D D V h.XX.X[.[.[.].].]._._._.!.W.",
"!._.!._._.].].].[.[.[.XXV.Y H 3 o @ @ @ # # 7 c.=X%X%X%X&X&X*X@Xd $.=X&X&X&X=XP.j n m N N B B D F J A h.XX[.[.[.[.].[._._._.W._.",
"_._.!._._.].].[.[.[..XV.Y K K I 3 O # # @ y b.=X%X*X=X=X=X=X=X*XE , w.=X&X&X%X=XS.k m N B B D F F F J P l..X[.[.].].`._._._.!.!.",
"/.W._._._.].[.[.].|./.T J K K K L 1 @ @ t n.*X#X*X~.D.d.F.p.3.1.u 1 # q.=X&X&X%X=XS.Z N B D D F F J J K R E..X].[.].`.`._._.W._.",
"/./._._._.].[.[.[.+Xj.F K K K K J G 1 y M.&X%X#X=Xv.5.b 8.r q 2 2 1 < o 0.=X&X%X#X*XZ.Z B D D F J J K K J l.XX].].[.].]._._._.W.",
"_./.!._._.].].[.[.|.4.J K K K J J J V u.=X#X%X%X=Xv.6.&.8.j q 0 2 < , # X 0.=X%X*X@X*XK.S D F J J K K K K 7.{.[.[.].]._._._./._.",
"!.!.`._._.].].[.[.[.4.J K K J J F F D U S.*X%X%X=Xv.6.E 8.f 0 2 1 < # # O   e.=X%X%X@X=Xz.V J J J K K K J 8.+X[.].].[._._._._.!.",
"_.!._._._.].].[.].+X9.J K K J J F D D N U Q.&XOX=Xc.6.v g.f 0 2 1 , # @ X _ ^.*X*XOX*X).p 3 L J K K K K I C..X].].[.]._.]._._.W.",
"W._._._._.[.].[.[.+XG.P K J J F F D B B m l R.*X=Xc.5.x 8.8 1 1 < , @ o _ OX=X*X$X=X~.; o O 4 I K K K J =._.|.[.[.[.]._._.!._.W.",
"/./._._._.].].[.[.]..Xg.G J F F D B B N N n l Y.=Xb.k...z.] c s 5 # O _ OX*X&X%X=XL.: O @ O o 4 I K K *.H..X[.[.].].`.`._._._./.",
"W./._._._.].].].[.|.[..X9.G F D D B N N m m w b (.%X|..X@X X.X[.a O ` OX=X%X%X=XN.* O @ O O o o 4 L *.H..X[..X[.[.].]._._._.!.W.",
"!._.W._._.`.].[.[.[.[.|.{.9.N D B B N m m n w q x ).=X*X&X&X=X%X> ) OX=X%X%X=Xm.% @ @ O O + o o . [ E..X{.[.[.[.[.].]._._._./._.",
"W._._._.`.`.].].].|.[..X.X.X7.N B N N m n n w w 0 z ^.=X*X&X*XOX+.}.*X&X%X=XB.+ @ @ @ O O o o . Q Y.@X[.{.[.[.[.[.].]._._._._.W.",
"W.W._.!._.].].].[.[.[.[.[..X.X2.m N m m n w w q q 2 z  X*X%X*X$XOX&X%X%X=Xe.+ @ @ @ O O O o . ! ~.@X{.{.{.[.[.[.].`._._._./._.W.",
"W._._._._._.].].].[.[.{..X[..XXX2.w m n w w w q 0 0 2 ^  X*X%X%X*X$X%X=Xw.+ # @ @ O O O o . Q (.XX{..X{.{.{.[.].].`._._._.!.!.W.",
"W./.W._._._._.].].[..X[.[..X{..XXX>.w n n q q 0 0 9 9 1 '  X&X#X%X%X*X@.O # # @ @ O o O X Q (.@X.X.X{.{.[.[.[.].]._.`._.!.!./.W.",
"W.W._./._._.`.].].[.].{.{..X{.{..X@X:.0 w q q 0 9 9 2 2 < ~ @X*X%X%X%.O # # @ @ O O O X / (.@X.X.X{.{.[.[.[.`.].]._._.!./._.W.W.",
"W.W././._._._.`.].].[.[.[.{.{.{..X.XXX;.0 q 0 9 9 9 2 2 1 , ~ OX@X` O # # @ @ O + O X / (.@X.X.X.X{..X[.|.].[.].].`.`.!./._.W.W.",
"W.W./.W.!._._._.].].[.[.[.[..X[..X.X.X@X-.2 0 0 9 2 2 2 1 1 # { } @ , # @ @ O @ O X ( ).@X.X.X.X[.{.[.[.[.].].[._._._._._._.W.W.",
"W.W.W._._._._._.].].].[.|.[.[..X{..X|..XXX-.1 9 9 2 1 1 1 1 < # # , # # @ @ @ O X ( ).@X X.X.X[..X{.[.[.].].].]._._._.!.W.W.W.W.",
"W.W.W.!._._._._._.].].[.[.[.[.|.{..X.X.X.XXXo.1 2 2 1 1 < < , < , # # # @ @ O X ( ).XX.XXX.X{..X[..X{.[.[.].[.`._._._./._.W.W.E.",
"E.W.W.W.W._._._.`._.].].[.[..X[.[.[..X.X[..XXXo.< 2 1 1 < < , , # # @ @ @ O o ( [.XX.X.X.X[.{.{.|.[.[.].[.]._._._._./._.W.W.W.E.",
"W.W.W.W.!._.!._._._.`.`.].].[.[.[..X|.{..X.X+X.XX.< 1 < < < , , # # @ @ O o ` ).XX{..X{.{.{.{.{.[.[.[.[.]._.]._._._._./.W.W.W.W.",
"E.W.W.W.W.!.!._._._._.`.].[.[.[.[.|.[..X{.[.[.XXXX ., < , , , # # # @ @ o ` [.XX{..X.X.X{.|.[.[.[.].[.].].`._._._._._.W.W.W.W.E.",
"E.W.W.W.W.W.!.!.!._._.`.`.].].[.[.[.[..X{..X{.{..X.X .# < , # # # @ + o | {.XX[.{.{..X{.[.[.[.[._.[._.[._._._._./._.W.W.W.W.W.E.",
"E.E.W.W.W.W.W.!._.!._._.`.].].].[.[.[.[.[.[.{.{.{.{..X .@ , , # @ @ o ` {..X[..X{.{.[.[.|.[.].[.[.].[._._._.!._./.W.W.W.W.E.E.E.",
"E.E.W.E.W.W.W.!._.!._.!._._.`.].].[.[.[.[..X[.{.{.[..X{.O.& @ O O * @.[.XX[..X{.[.[.{.[.[.[.].[.[._._._._._._.W.!.W.E.W.E.E.E.E.",
"E.E.E.W.W.W.W.W.W.!.!._._._.`.`.].].].].].[.[.[.[.[.[..X.XA.w.$.r.A..X{.[.|.[.[.[.[.[.].].].].].[._._._._._._.!.W.W.W.W.W.E.E.E.",
"E.E.E.W.W.W.W.W.W.!.!.!.!._._._.].].].].[.[.[.[.[.[.[.[.[..X@X.XXX.X[.[.|.[.[.[.[.[.[.].].].]._._._._._.!._.W.W.W.W.W.E.E.E.E.E.",
"E.E.E.E.Q.W.W.W.W.W.!._.!.!._._._._.].].[.].].].[.[.[.[.[.[.[.[.].[.[.{.[.[.[.[.].[.].].].].`._._._._._._.W.W.W.W.W.W.W.E.E.E.E.",
"T.E.E.E.W.W.W.W.W.W.!.W._._.!._._._._._.`.].`.`.].[.].[.[.[.[.].].[.].[.[.].].].`._.].].`._._._._.!.!.!.!.!.W.W.W.W.E.E.E.W.T.T.",
"T.T.E.E.T.T.W.T.W.W.W.W.W.!./.!._._._.`._.`.`.`.`.].].].].].].].[.].].[.].].].].`.`.]._._._._._.!.!.!.!.W.W.W.E.W.E.W.E.E.T.T.T.",
"T.T.Q.E.E.E.W.W.E.W.W.W.W./.W._._.W._._._.`._.!.`.`.`._.`.`.].].].`.`.].`.`.].`.`._._._._._.!.!.W._.W.W.W.W.E.W.E.E.E.E.T.T.T.T.",
"T.T.T.T.E.E.E.W.W.E.W.W.W.W.W.W.W._././._.!.!.`._._.`._._.`.`.`.`.`._._._.`._._._._._._._.!._.!.W.W.W.W.W.W.W.W.E.E.E.E.W.T.T.T.",
"T.T.T.T.T.E.E.T.Q.W.E.W.W.W.W.W./.W./._.!._.!._.!._.!._._._._._._._._._._._._._._./._.W._._.!.!.W.W.W.W.E.W.E.E.E.E.E.E.T.T.T.T.",
"H.T.T.T.T.T.T.W.E.W.E.E.E.W.W.W.W.W.W./.W._.W._.!._._._._._._._._._._._._._.!._._._.W._.W.W.W.W.W.W.W.W.W.W.T.W.E.E.E.T.T.T.H.T.",
"H.T.T.T.T.T.T.T.T.E.E.E.W.E.W.W.W.W.W.W.W._.W._.W._.!.!._./.W._._.W./._.W._.!.!._.W.W.W.W.W.W.W.W.W.E.E.E.E.E.E.T.T.T.T.T.T.T.H.",
"T.T.H.T.T.T.T.T.T.E.E.E.E.E.W.W.E.W.W.W.W.W./.W.W.W._.!.W./._././._._.W._././.W.W.W./.W.W.W.E.W.E.W.W.E.E.E.E.E.T.T.H.T.T.H.T.T."
};
