/* XPM */
static char *_552973788281[] = {
/* columns rows colors chars-per-pixel */
"32 32 136 2 ",
"   c #005700",
".  c #005F00",
"X  c #026402",
"o  c #006B00",
"O  c #0B6C0B",
"+  c #017401",
"@  c #087407",
"#  c #037B03",
"$  c #0E730E",
"%  c #136612",
"&  c #166D15",
"*  c #1A661A",
"=  c #177317",
"-  c #1A751A",
";  c #1C781B",
":  c #038203",
">  c #028B02",
",  c #029202",
"<  c #029B02",
"1  c #0A940A",
"2  c #0C9B0C",
"3  c #118F10",
"4  c #1A831A",
"5  c #198D19",
"6  c #119312",
"7  c #189418",
"8  c #1D9F1D",
"9  c #01A301",
"0  c #01AC02",
"q  c #0DA50D",
"w  c #07AD08",
"e  c #02B202",
"r  c #02BC02",
"t  c #0CB60C",
"y  c #17A017",
"u  c #288528",
"i  c #239224",
"p  c #2B932D",
"a  c #358935",
"s  c #3F8E3F",
"d  c #329432",
"f  c #3C973C",
"g  c #3C993C",
"h  c #32B432",
"j  c #3AB63A",
"k  c #03C403",
"l  c #01CD01",
"z  c #02D302",
"x  c #01DC01",
"c  c #0FDF0F",
"v  c #01E201",
"b  c #00ED00",
"n  c #0AE50B",
"m  c #03F203",
"M  c #03FE03",
"N  c #10F411",
"B  c #3AEE3A",
"V  c #419941",
"C  c #4A964A",
"Z  c #509D4F",
"A  c #5BA55A",
"S  c #66B566",
"D  c #69BC68",
"F  c #7CAB7B",
"G  c #71BD70",
"H  c #7BBA7B",
"J  c #44C644",
"K  c #42CA42",
"L  c #5BC15B",
"P  c #5CD55C",
"I  c #42ED42",
"U  c #44F143",
"Y  c #4FF24F",
"T  c #6BC26B",
"R  c #6CCD6C",
"E  c #76C576",
"W  c #7ACE79",
"Q  c #6FD471",
"!  c #73DC72",
"~  c #7CD67C",
"^  c #7EDD7F",
"/  c #73E474",
"(  c #76EC76",
")  c #86C586",
"_  c #8CC98D",
"`  c #9FC49F",
"'  c #80E381",
"]  c #83EA82",
"[  c #8DF28E",
"{  c #9BE99A",
"}  c #9AF499",
"|  c #A5CDA5",
" . c #AACFAA",
".. c #ADD4AD",
"X. c #ACDFAD",
"o. c #B0CFB0",
"O. c #B4DBB4",
"+. c #BBDDBB",
"@. c #A4E3A4",
"#. c #A7E8A7",
"$. c #ABE2AC",
"%. c #A3F2A3",
"&. c #A9FDA9",
"*. c #B2E4B2",
"=. c #BBE0BB",
"-. c #B0F7B0",
";. c #C5DCC5",
":. c #C5E5C4",
">. c #CDE6CC",
",. c #CAEFCB",
"<. c #C4FCC3",
"1. c #CAF0CA",
"2. c #C7FCC8",
"3. c #CCFDCC",
"4. c #D0FECF",
"5. c #CFE1D0",
"6. c #D3E8D4",
"7. c #D9E7D9",
"8. c #DCEEDC",
"9. c #CFFED0",
"0. c #D7F0D7",
"q. c #D4FDD3",
"w. c #DCF0DD",
"e. c #D7FDD8",
"r. c #DBFDDB",
"t. c #E0FDDF",
"y. c #E3F3E4",
"u. c #E4FDE4",
"i. c #E8FEE7",
"p. c #EBF5EB",
"a. c #ECFFEB",
"s. c #F0FFEF",
"d. c #EFFFF0",
"f. c #F3F6F3",
"g. c #F2FEF2",
"h. c #FEFFFE",
/* pixels */
"<.-.<.<.2.2.2.3.3.3.3.3.4.q.4.4.q.4.4.3.3.3.3.3.2.2.2.2.<.<.<.<.",
"<.2.<.2.2.3.3.3.3.3.q.4.3.q.4.q.q.4.q.q.q.4.4.3.3.3.2.2.2.<.<.<.",
"<.2.2.2.2.3.3.4.4.q.q.q.e.e.e.q.e.e.e.q.4.4.q.4.4.3.3.3.2.2.<.<.",
"<.2.2.3.3.3.4.4.4.q.e.e.e.e.e.e.e.e.e.e.e.e.q.4.4.4.4.3.2.2.<.<.",
"2.2.3.3.4.4.4.q.q.r.e.r.r.r.u.i.u.p.r.r.r.e.r.e.q.q.4.3.3.3.2.2.",
"2.2.3.3.4.4.q.e.r.r.r.r.r.i.=.Z g _ i.r.r.r.r.r.0.q.4.4.4.2.2.2.",
"3.2.3.4.4.q.e.r.r.r.r.r.a...$ + # # G a.r.r.r.r.r.e.q.4.4.3.4.2.",
"2.4.4.4.q.e.e.r.r.u.r.g...$ # : > , : E g.t.t.r.r.r.r.q.4.4.3.2.",
"3.3.4.4.q.r.r.r.t.t.g. .O + : : > , < , E g.t.t.t.e.e.e.4.4.4.3.",
"4.4.4.q.e.r.r.t.r.g. .O + : # i 7 , < 9 9 W g.r.r.t.r.e.q.4.4.3.",
"4.4.q.e.r.r.t.t.g. .O o # # i 6.=.1 9 0 e e ~ g.t.r.r.e.e.4.4.3.",
"4.4.q.e.r.r.r.g.| X + # # p 0.h.h.$.2 0 r k r ' s.t.r.r.e.4.4.4.",
"3.4.q.e.r.r.g.` X O # + d w.h.g.h.h.X.w r k z l ^ s.t.r.e.q.q.4.",
"4.q.e.e.e.p.} 2 X # o f y.h.h.f.| g.h.$.r z x v v ] i.r.e.e.q.4.",
"4.4.e.e.u.%.m M q o f p.g.1.1.$.6 H h.h.@.l x v m b } u.q.e.q.4.",
"4.q.q.r.u.I M M b h p.h.,.P K 9 < + F g.h.{ n b m M U u.r.q.q.4.",
"4.4.e.e.t.B M m b c #.h.1.P J < 1 + * 7.h.f.j b M M Y u.e.e.q.3.",
"q.q.q.e.i.[ m b v x k *.y.R L 8 # = ;.h.p.C . q M N -.u.e.e.q.q.",
"3.q.q.r.r.i.( v x z l t $.h.p.w.a +.h.p.s o O   8 &.i.r.e.e.4.4.",
"4.4.e.e.r.r.a./ l l k r q =.h.p.5.h.8.a o @ X %  .s.r.r.e.e.q.3.",
"3.q.q.e.r.r.r.s.! r k e 9 2 +.h.h.6.u o @ o % O.s.r.t.r.e.q.4.4.",
"3.q.4.e.e.r.r.t.g.Q 0 w 9 < 6 :.>.; + @ o % +.f.r.t.r.e.e.4.4.3.",
"3.4.4.q.e.r.r.r.u.a.R < 9 < > 5 4 # # o & +.g.r.t.r.e.e.q.q.4.3.",
"3.3.4.q.e.r.r.t.r.u.a.T , , , : # # o = +.g.r.t.t.r.e.e.q.4.3.3.",
"2.3.4.4.q.e.e.r.r.t.t.s.D : > : : o - +.s.t.t.r.r.e.e.4.4.4.3.3.",
"2.3.3.4.q.q.e.r.r.t.r.t.a.S + # o ; =.s.r.t.r.r.e.e.e.4.4.4.3.2.",
"3.2.3.3.4.4.q.e.e.e.r.r.r.p.) V A :.i.r.r.r.r.e.e.q.4.4.4.2.2.2.",
"2.2.3.3.4.4.4.q.e.e.r.r.r.r.i.u.i.u.r.r.r.e.e.e.q.4.4.4.3.3.2.2.",
"<.2.2.3.3.4.4.4.q.q.e.e.e.r.q.e.e.e.r.e.e.e.4.q.4.4.4.4.2.3.2.<.",
"<.<.<.3.2.3.1.4.4.4.4.q.q.q.q.e.e.e.e.e.q.q.4.4.4.4.2.2.2.2.<.<.",
"<.<.<.2.2.3.3.3.4.4.4.4.q.q.q.e.q.4.4.4.4.4.4.4.3.2.2.2.<.<.<.<.",
"<.<.<.<.<.2.2.3.2.3.4.4.4.4.4.4.4.4.4.4.4.3.1.3.3.2.2.2.<.<.<.<."
};
