/* XPM */
static char *_552973793928[] = {
/* columns rows colors chars-per-pixel */
"16 16 151 2 ",
"   c #C1FCC1",
".  c #C5FCC5",
"X  c #C8FCC9",
"o  c #CAFCCA",
"O  c #CDFDCD",
"+  c #CFFDCE",
"@  c #D1FED0",
"#  c #CFFCCE",
"$  c #CFFBCE",
"%  c #D1FDD0",
"&  c #CCFDCD",
"*  c #C8FCC8",
"=  c #CBFCCB",
"-  c #D2FDD1",
";  c #D5FDD5",
":  c #D4FCD4",
">  c #E0FEE1",
",  c #E3FFE4",
"<  c #D5FCD5",
"1  c #D5FDD4",
"2  c #D3FDD2",
"3  c #C9FCC9",
"4  c #D0FDCF",
"5  c #D4FDD4",
"6  c #D7FDD8",
"7  c #D7FCD8",
"8  c #EAFFEA",
"9  c #ACDBAD",
"0  c #9DD49D",
"q  c #E7FFE7",
"w  c #DAFDDA",
"e  c #D4FDD3",
"r  c #CEFDCE",
"t  c #D8FDD9",
"y  c #D8FBD9",
"u  c #F2FFF1",
"i  c #93C792",
"p  c #037403",
"a  c #007D00",
"s  c #73C473",
"d  c #F0FFEF",
"f  c #DAFCDB",
"g  c #D8FDD8",
"h  c #D5FDD3",
"j  c #CFFDCF",
"k  c #CAFCCB",
"l  c #D2FDD2",
"z  c #D9FCD9",
"x  c #F3FFF2",
"c  c #92C492",
"v  c #006C00",
"b  c #0B840B",
"n  c #0B920B",
"m  c #009400",
"M  c #77CF77",
"N  c #D8FCD9",
"B  c #8FC18F",
"V  c #006800",
"C  c #067E07",
"Z  c #B6DEB6",
"A  c #A4DAA4",
"S  c #00A000",
"D  c #00B400",
"F  c #79DE7A",
"G  c honeydew",
"H  c #D9FDDA",
"J  c #D4FCD5",
"K  c #E8FFE9",
"L  c #8BD68B",
"P  c #006100",
"I  c #0C7C0C",
"U  c #BEE0BF",
"Y  c #FDFDFD",
"T  c #F3F7F3",
"R  c #9FE29F",
"E  c #00C000",
"W  c #00D300",
"Q  c #7CEC7B",
"!  c #E8FEE8",
"~  c #E2FEE3",
"^  c #A2F7A3",
"/  c #00F600",
"(  c #0BAE0B",
")  c #C9DCC9",
"_  c #CFF8CF",
"`  c #58CA59",
"'  c #239822",
"]  c #DCE3DC",
"[  c #9DF09D",
"{  c #02EA02",
"}  c #00F500",
"|  c #A0F8A0",
" . c #E3FEE3",
".. c #E3FEE4",
"X. c #9BF79C",
"o. c #00F400",
"O. c #03E602",
"+. c #A5EBA5",
"@. c #AFE7AF",
"#. c #1BAE1B",
"$. c #007100",
"%. c #B7D1B7",
"&. c #D6E2D6",
"*. c #0CAB0C",
"=. c #00F800",
"-. c #A9FAA9",
";. c #E1FDE2",
":. c #E7FEE7",
">. c #75EC75",
",. c #00D000",
"<. c #00BB00",
"1. c #9BDB9C",
"2. c #ECF3EC",
"3. c #C5DEC6",
"4. c #C7E2C7",
"5. c #0C710C",
"6. c #005A00",
"7. c #96DB95",
"8. c #EFFFEE",
"9. c #73DD73",
"0. c #00AF00",
"q. c #019C01",
"w. c #ABDAAC",
"e. c #BBDEBB",
"r. c #057205",
"t. c #026202",
"y. c #99C799",
"u. c #F1FFF0",
"i. c #CDFDCC",
"p. c #D7FDD7",
"a. c #DAFDDB",
"s. c #71CC71",
"d. c #008F00",
"f. c #0B8C0B",
"g. c #087909",
"h. c #026802",
"j. c #9CC99C",
"k. c #DBFCDB",
"l. c #6EC06D",
"z. c #007700",
"x. c #077107",
"c. c #9DCD9C",
"v. c #CBFCCC",
"b. c #E6FEE6",
"n. c #9CD49C",
"m. c #B1DEB1",
"M. c #CBFDCB",
"N. c #E4FFE4",
"B. c #CFFCCF",
"V. c #D1FDD1",
"C. c #C1FCC2",
/* pixels */
"  . X o O + @ # $ % + & o * .   ",
". * = + - ; : > , < 1 2 + = 3 . ",
"* = 4 5 6 7 8 9 0 q w 6 e 4 = * ",
"o r 5 t y u i p a s d f g h j k ",
"O l 6 z x c v b n m M u w 6 l O ",
"+ 1 N u B V C Z A S D F G H 1 j ",
"% J K L P I U Y T R E W Q ! 1 % ",
"+ ~ ^ / ( ) _ ` ' ] [ { } |  .+ ",
"+ ..X.o.O.+.@.#.$.%.&.*.=.-.;.+ ",
"% ; :.>.,.<.1.2.3.4.5.6.7.K : % ",
"j 5 H 8.9.0.q.w.e.r.t.y.u.N 1 j ",
"i.l p.a.u.s.d.f.g.h.j.x z 6 2 O ",
"o + h g k.8.l.z.x.c.u.y t 5 j o ",
"X v.4 h p.a.b.n.m.8 7 6 5 4 M.* ",
". 3 = + 2 1 < N.> : ; l j = X . ",
"  . * o & + % # B.V.j O o * . C."
};
